<svg width="598" height="142" viewBox="0 0 598 142" fill="none" xmlns="http://www.w3.org/2000/svg">
<path d="M198.83 6.80005H210.49V103C210.504 104.407 210.234 105.803 209.696 107.104C209.158 108.405 208.364 109.583 207.36 110.57C206.402 111.594 205.241 112.407 203.951 112.958C202.662 113.509 201.272 113.785 199.87 113.77H189.24V107.65C182.781 111.549 175.385 113.622 167.84 113.65C162.229 113.732 156.66 112.664 151.478 110.51C146.296 108.357 141.61 105.165 137.71 101.13C133.736 97.1714 130.584 92.4662 128.436 87.2851C126.287 82.1039 125.184 76.5491 125.19 70.94C125.193 65.3427 126.298 59.8008 128.443 54.6308C130.588 49.4608 133.731 44.7641 137.691 40.809C141.652 36.8539 146.353 33.7179 151.526 31.5801C156.699 29.4424 162.243 28.3448 167.84 28.35C175.362 28.3633 182.747 30.3716 189.24 34.17V16.4C189.24 13.8557 190.25 11.4154 192.048 9.61536C193.846 7.81529 196.286 6.8027 198.83 6.80005ZM189.24 71.58V70.27C189.169 66.5889 188.112 62.994 186.18 59.8601C184.285 56.7517 181.632 54.1747 178.47 52.37C175.21 50.5422 171.533 49.5882 167.796 49.6004C164.058 49.6127 160.388 50.5909 157.14 52.44C153.91 54.315 151.225 57 149.35 60.23C146.971 64.3009 146.009 69.0458 146.616 73.7217C147.222 78.3976 149.362 82.7404 152.7 86.07C156.659 90.0832 162.049 92.3597 167.686 92.3991C173.324 92.4385 178.745 90.2375 182.76 86.28C184.755 84.3773 186.354 82.0992 187.466 79.5765C188.579 77.0538 189.181 74.3363 189.24 71.58Z" fill="#FCF0E3"/>
<path d="M232 40.8699C240.01 32.8665 250.865 28.364 262.188 28.349C273.512 28.334 284.379 32.8077 292.41 40.7899C296.462 44.6829 299.67 49.3672 301.836 54.552C304.002 59.7369 305.079 65.3115 305 70.9299C305.086 76.5519 304.019 82.132 301.866 87.3259C299.713 92.5199 296.518 97.2178 292.48 101.13C288.514 105.098 283.806 108.247 278.623 110.395C273.44 112.542 267.885 113.648 262.275 113.648C256.665 113.648 251.11 112.542 245.927 110.395C240.744 108.247 236.035 105.098 232.07 101.13C228.03 97.2193 224.834 92.5217 222.68 87.3273C220.527 82.133 219.462 76.5523 219.55 70.9299C219.444 65.3323 220.496 59.7732 222.638 54.6007C224.78 49.4282 227.967 44.7537 232 40.8699ZM247.13 86.1399C249.105 88.1291 251.456 89.7064 254.045 90.7807C256.634 91.855 259.411 92.4048 262.215 92.3983C265.018 92.3918 267.792 91.8291 270.376 90.7428C272.961 89.6565 275.304 88.0682 277.27 86.0699C279.284 84.1019 280.878 81.7451 281.954 79.1426C283.03 76.54 283.566 73.746 283.53 70.9299C283.409 65.3542 281.109 60.0474 277.123 56.1468C273.137 52.2461 267.782 50.0618 262.205 50.0618C256.628 50.0618 251.273 52.2461 247.287 56.1468C243.3 60.0474 241.001 65.3542 240.88 70.9299C240.85 73.7581 241.392 76.5632 242.473 79.1769C243.554 81.7905 245.151 84.1589 247.17 86.1399H247.13Z" fill="#FCF0E3"/>
<path d="M399.15 62.27C400.514 68.6962 400.34 75.3541 398.64 81.6999C397.094 87.7534 394.237 93.3932 390.27 98.22C386.301 102.95 381.363 106.772 375.79 109.43C369.536 112.473 362.621 113.907 355.673 113.601C348.725 113.296 341.963 111.26 336 107.68V124.42C336.016 125.828 335.747 127.224 335.209 128.525C334.671 129.826 333.876 131.005 332.87 131.99C331.89 133.027 330.704 133.849 329.389 134.401C328.073 134.954 326.657 135.226 325.23 135.2H314.72V28.2H336V34.2C341.119 31.0717 346.865 29.111 352.828 28.4576C358.791 27.8043 364.825 28.4743 370.5 30.42C377.706 32.6977 384.168 36.8698 389.21 42.5C394.296 48.0383 397.738 54.8843 399.15 62.27ZM342.23 86.1399C345.235 89.1207 349.054 91.1456 353.207 91.9594C357.361 92.7732 361.662 92.3395 365.569 90.7131C369.477 89.0867 372.815 86.3402 375.164 82.8197C377.513 79.2992 378.768 75.1622 378.77 70.93C378.77 65.2543 376.515 59.8111 372.502 55.7979C368.489 51.7846 363.046 49.5299 357.37 49.5299C351.694 49.5299 346.251 51.7846 342.238 55.7979C338.225 59.8111 335.97 65.2543 335.97 70.93C335.936 73.756 336.473 76.5598 337.549 79.1733C338.625 81.7869 340.217 84.1564 342.23 86.1399Z" fill="#FCF0E3"/>
<path d="M550.25 82.21H571.36C571.407 87.8497 569.95 93.4001 567.14 98.29C564.381 103.136 560.353 107.14 555.49 109.87C550.62 112.659 545.102 114.115 539.49 114.09C535.874 114.104 532.281 113.512 528.86 112.34C522.626 110.147 517.23 106.068 513.421 100.669C509.611 95.2693 507.576 88.8179 507.6 82.21V7.20996H518.08C519.976 7.20069 521.838 7.70524 523.47 8.66996C525.095 9.62197 526.448 10.9752 527.4 12.6C528.362 14.236 528.863 16.1021 528.85 18V28.93H571.36V50H528.85V84.39C529.388 87.0145 530.881 89.3459 533.04 90.932C535.199 92.5182 537.87 93.246 540.536 92.9745C543.201 92.703 545.67 91.4515 547.465 89.4625C549.26 87.4736 550.253 84.889 550.25 82.21Z" fill="#FCF0E3"/>
<path d="M90.69 28.2V34.2C84.1975 30.4002 76.8127 28.3918 69.29 28.3799C63.688 28.2917 58.1268 29.3467 52.9463 31.4804C47.7658 33.6142 43.0748 36.7819 39.16 40.79C35.1175 44.6864 31.9198 49.3729 29.7659 54.5581C27.6121 59.7432 26.548 65.316 26.64 70.93C26.5517 76.5523 27.6171 82.133 29.7706 87.3273C31.924 92.5217 35.1196 97.2193 39.16 101.13C43.0597 105.166 47.7454 108.359 52.9277 110.512C58.11 112.665 63.6788 113.733 69.29 113.65C77.1666 113.647 84.8837 111.429 91.56 107.25C92.4438 109.096 93.7995 110.676 95.49 111.83C97.196 113.03 99.2344 113.666 101.32 113.65H112V28.2H90.69ZM76.93 58.27C77.45 54.66 80.33 52.2699 83.36 53.0299C86.39 53.7899 88.42 57.23 87.9 60.83C87.38 64.43 84.5 66.8299 81.47 66.07C78.44 65.31 76.41 61.8699 76.93 58.27ZM64.62 46.0999C67.34 44.2599 71.06 45.4799 72.93 48.82C74.8 52.16 74.12 56.38 71.4 58.22C68.68 60.06 64.97 58.85 63.1 55.5C61.23 52.15 61.91 47.9999 64.62 46.0999ZM50.71 52.0999C53.43 50.2599 57.15 51.4699 59.02 54.82C60.89 58.17 60.21 62.38 57.49 64.22C54.77 66.06 51.06 64.8499 49.19 61.5C47.32 58.15 48 54 50.71 52.1399V52.0999ZM54.44 77.7699C52.89 80.4699 49.21 80.9699 46.22 78.8899C43.23 76.81 42.07 72.8899 43.62 70.2399C45.17 67.5899 48.85 67.04 51.84 69.12C54.83 71.2 56 75.1099 54.44 77.8099V77.7699ZM87.82 84.7699C84.06 87.6499 78.54 84.3299 73.98 86.2699C69.36 88.0399 67.68 94.27 62.98 94.8C58.28 95.33 54.68 90.2199 58.98 80.9199C61.78 74.66 61 69.2999 66.17 67.0599C71.44 65.0599 74.61 69.4899 81.1 72.0599C90.63 75.7599 91.58 81.9399 87.82 84.8099V84.7699Z" fill="#FCF0E3"/>
<path d="M471.5 82.85C469.329 86.5658 466.044 89.5045 462.11 91.25C458.188 93.0528 453.803 93.5943 449.56 92.8C445.416 92.0804 441.571 90.1732 438.49 87.31L494.56 62.2L493.9 59.3C493.826 58.7611 493.695 58.2316 493.51 57.72C493.172 56.5001 492.744 55.3068 492.23 54.15C490.504 50.2119 488.139 46.5864 485.23 43.42C479.369 36.5161 471.375 31.7623 462.51 29.91C453.579 27.8689 444.224 28.8356 435.9 32.66C430.343 35.123 425.378 38.7484 421.339 43.292C417.301 47.8356 414.284 53.1919 412.49 59C410.75 64.7249 410.218 70.749 410.93 76.69C411.775 83.7468 414.404 90.4719 418.57 96.23C422.394 101.679 427.447 106.151 433.32 109.285C439.194 112.418 445.722 114.124 452.378 114.265C459.033 114.406 465.628 112.979 471.629 110.097C477.63 107.216 482.869 102.962 486.92 97.68C490.283 93.2528 492.759 88.217 494.21 82.85H471.5ZM436.38 58C438.487 55.2957 441.237 53.161 444.38 51.79C447.511 50.3599 450.945 49.7212 454.38 49.93C457.757 50.14 461.044 51.1036 464 52.75L432.12 67C432.855 63.7213 434.31 60.6471 436.38 58Z" fill="#FCF0E3"/>
</svg>
