<svg width="139" height="139" viewBox="0 0 139 139" fill="none" xmlns="http://www.w3.org/2000/svg">
<path d="M97.3 13.9V21.6562C88.8587 16.7369 79.2701 14.1288 69.5 14.0946C62.2054 13.9846 54.9649 15.3625 48.2207 18.1443C41.4764 20.9261 35.37 25.0535 30.2742 30.2742C25.0037 35.3423 20.8307 41.4393 18.014 48.1869C15.1973 54.9345 13.797 62.1888 13.9 69.5C13.7913 76.8168 15.1805 84.0785 17.982 90.8386C20.7836 97.5987 24.9383 103.714 30.1908 108.809C35.2788 114.071 41.393 118.232 48.1548 121.034C54.9165 123.836 62.1816 125.22 69.5 125.1C79.756 125.094 89.8036 122.204 98.4954 116.76C99.6261 119.18 101.394 121.246 103.611 122.737C105.827 124.307 108.484 125.135 111.2 125.1H125.1V13.9H97.3ZM79.4246 53.0146C79.4753 52.0011 79.7379 51.0095 80.1956 50.1039C80.6533 49.1982 81.2959 48.3986 82.0818 47.7567C82.8678 47.1149 83.7797 46.645 84.7585 46.3775C85.7374 46.11 86.7615 46.0507 87.7646 46.2036C89.8184 46.8921 91.5516 48.304 92.6411 50.1761C93.7306 52.0482 94.102 54.2527 93.686 56.3784C93.6397 57.3934 93.3798 58.3873 92.9235 59.2951C92.4671 60.2029 91.8245 61.0043 91.0375 61.647C90.2505 62.2897 89.3369 62.7592 88.3562 63.025C87.3755 63.2908 86.3498 63.3468 85.346 63.1894C83.2923 62.501 81.5591 61.089 80.4696 59.2169C79.3801 57.3448 79.0087 55.1404 79.4246 53.0146ZM63.4118 37.1964C64.3412 36.66 65.373 36.3252 66.4403 36.2139C67.5075 36.1025 68.5862 36.2171 69.6063 36.5501C70.6263 36.8832 71.5648 37.4272 72.3608 38.1468C73.1567 38.8664 73.7922 39.7456 74.226 40.727C75.4426 42.6567 75.9133 44.9639 75.5499 47.2159C75.1866 49.4679 74.014 51.51 72.2522 52.959C71.3229 53.4954 70.291 53.8302 69.2238 53.9416C68.1566 54.0529 67.0778 53.9383 66.0578 53.6053C65.0377 53.2723 64.0992 52.7283 63.3033 52.0086C62.5074 51.289 61.8718 50.4099 61.438 49.4284C60.2215 47.4988 59.7507 45.1915 60.1141 42.9395C60.4775 40.6875 61.6501 38.6455 63.4118 37.1964ZM45.314 45.0638C46.2423 44.523 47.2745 44.1846 48.3428 44.0709C49.4112 43.9573 50.4915 44.0709 51.5128 44.4043C52.5341 44.7377 53.4733 45.2835 54.2688 46.0056C55.0642 46.7278 55.6979 47.61 56.1282 48.5944C57.3448 50.5241 57.8155 52.8313 57.4521 55.0833C57.0887 57.3353 55.9162 59.3774 54.1544 60.8264C53.2244 61.3665 52.1905 61.7035 51.1209 61.8152C50.0513 61.927 48.9701 61.811 47.9485 61.4748C46.927 61.1387 45.9881 60.59 45.1939 59.8649C44.3996 59.1399 43.7678 58.2548 43.3402 57.268C42.1255 55.3427 41.6558 53.04 42.0192 50.7927C42.3827 48.5454 43.5543 46.5081 45.314 45.0638ZM50.179 78.4238C49.6084 79.2684 48.8662 79.9833 48.0008 80.5219C47.1354 81.0605 46.1662 81.4107 45.1564 81.5497C44.1466 81.6887 43.1189 81.6134 42.1402 81.3287C41.1614 81.0439 40.2537 80.5562 39.476 79.8972C37.6586 78.7426 36.3198 76.9698 35.7068 74.9058C35.0937 72.8417 35.2475 70.6256 36.14 68.666C36.7107 67.8214 37.4529 67.1066 38.3183 66.568C39.1837 66.0294 40.1528 65.6792 41.1626 65.5402C42.1724 65.4011 43.2002 65.4765 44.1789 65.7612C45.1576 66.0459 46.0654 66.5336 46.843 67.1926C48.6671 68.3481 50.0104 70.1258 50.6239 72.1961C51.2373 74.2664 51.0792 76.4889 50.179 78.4516V78.4238ZM93.6026 87.57C88.7098 91.323 81.5374 86.9862 75.5882 89.516C69.5 91.74 67.276 100.08 61.16 100.664C55.044 101.248 50.3458 94.6868 55.9336 82.5938C59.7144 74.2538 58.7136 67.3872 65.4412 64.4682C72.1688 61.5492 76.4222 67.6374 84.9012 70.9456C97.3 75.7828 98.4954 83.817 93.6026 87.57Z" fill="#3772FF"/>
</svg>
